<svg version="1.1" width="100" height="100" xmlns="http://www.w3.org/2000/svg">
  <!-- This is the outline of the helmet -->
  <path
    d="
      M 13.8110352 58.628418
      h 5.9561157
      c 2.2710571 5.5077515, 6.0344849 10.3568115, 10.9076538 13.9428711
      H 29.871582
      c -2.2924805 0, -4.1572266 1.8647461, -4.1572266 4.1572266
      v 4.3632812
      h -5.1259766
      c -4.3603516 0, -7.9082031 3.5473633, -7.9082031 7.9082031
      c 0 0.5522461, 0.4477539 1, 1 1
      h 72.9956056
      s 1 -0.4477539, 1 -1
      c 0 -4.3608398, -3.5478516 -7.9082031, -7.9082031 -7.9082031
      h -5.3359375
      v -4.3632812
      c 0 -2.2924805, -1.8647461 -4.1572266, -4.1572266 -4.1572266
      h -0.9646606
      c 4.8712158 -3.5853882, 8.6332397 -8.4359131, 10.9047241 -13.9428711
      h 5.9744873
      C 88.2905273 58.628418, 90 56.9189453, 90 54.8173828
      V 37.6132812
      c 0 -2.1015625, -1.7094727 -3.8110352, -3.8110352 -3.8110352
      h -5.982666
      C 75.973877 23.5884399, 66.6936646 15.8347168, 55.3344116 13.9642944
      c -0.0002441 -2.1452026, -1.7452393 -3.8900757, -3.890564 -3.8900757
      h -2.7392578
      c -2.1361084 0, -3.8727417  1.7305908, -3.8878784 3.8632202
      C 33.375 15.7599487, 24.0255127 23.5344849, 19.7749023 33.8022461
      h -5.9638672
      C 11.7094727 33.8022461, 10 35.5117188, 10 37.6132812
      v 17.2041016
      C 10 56.9189453, 11.7094727 58.628418, 13.8110352 58.628418
      z
    "
  />
  <!-- This is the filling of the body -->
  <path
    fill="#f9e910"
    d="
      M 14.6801757 89
      c 0 -3.2578125, 2.6503906 -5.9082031, 5.9082031 -5.9082031
      h 5.9020386
      c 9.7984009 4.723938, 23.0215454 4.78125, 23.5838013 4.78125
      c 0.0368042 0, 0.0679932 -0.0170288, 0.1037598 -0.0209351
      c 0.0357666 0.0039062, 0.0669556 0.0209351, 0.1037598 0.0209351
      c 0.5622559 0, 13.7849121 -0.057312, 23.5838013 -4.78125
      h 5.9020386
      c 3.2578125 0, 5.9082031 2.6503906, 5.9082031 5.9082031
      z
    "
  />
  <!-- This is a cheat line -->
  <line
    x1="13.6801757"
    y1="89"
    x2="86.6757813"
    y2="89"
    stroke="black" stroke-width="2"
  />
  <!-- This is the filling of the scarf -->
  <path
    fill="#ff9801"
    d="
      M 72.4316406 76.7285156
      v 1.1030273
      h -3.1210938
      c -0.5522461 0, -1 0.4477539, -1 1
      s 0.4477539 1, 1 1
      h 3.1210938
      v 1.7246094
      c -9.3400879 4.2598877, -22.0197144 4.3168945, -22.1499023 4.3168945
      c -0.0368042 0, -0.0679932 0.0170288, -0.1037598 0.0209351
      c -0.0357666 -0.0039062, -0.0669556 -0.0209351, -0.1037598 -0.0209351
      c -0.1316528 0, -12.9926147 -0.0546875, -22.3598633 -4.4157104
      V 79.831543
      h 3.1210938
      c 0.5522461 0, 1 -0.4477539, 1 -1
      s -0.4477539 -1, -1 -1
      h -3.1210938
      v -1.1030273
      c 0 -1.1894531, 0.9677734 -2.1572266, 2.1572266 -2.1572266
      h 40.402832
      C 71.4638672 74.5712891, 72.4316406 75.5390625, 72.4316406 76.7285156
      z
    "
  />
  <!-- This is the filling of the right part of the helmet -->
  <path
    fill="#ff9801"
    d="
      M 86.1889648 35.8022461
      C 87.1875 35.8022461, 88 36.6147461, 88 37.6132812
      v 17.2041016
      c 0 0.9985352, -0.8125 1.8110352, -1.8110352 1.8110352
      h -5.2232056
      c 1.1228027 -3.3179932, 1.7207642 -6.8317871, 1.7207642 -10.4130859
      c 0 -3.6200562, -0.607605 -7.124939, -1.723877 -10.4130859
      H 86.1889648
      z
    "
  />
  <!-- This is the filling of the top part of the helmet -->
  <path
    fill="#ff9801"
    d="
      M 46.8139648 13.9648438
      c 0 -1.0424805, 0.8481445 -1.890625, 1.890625 -1.890625
      h 2.7392578
      c 1.0424805 0, 1.890625 0.8481445, 1.890625 1.890625
      v 3.8945312
      h -6.5205078
      V 13.9648438
      z
    "
  />
  <!-- This is the filling of the center part of the helmet -->
  <path
    fill="#f9e910"
    d="
      M 44.8139648 15.9632568
      v 2.8961182
      c 0 0.5522461, 0.4477539 1, 1 1
      h 8.5205078
      c 0.5522461 0, 1 -0.4477539, 1 -1
      v -2.867981
      c 14.5212402 2.5525513, 25.3520508 15.3670044, 25.3520508 30.223938
      c 0 10.741272, -5.7299805 20.8343506, -14.9558716 26.355957
      H 34.2582397
      c -9.2296753 -5.522522, -14.9603882 -15.6072998, -14.9603882 -26.355957
      C 19.2978516 31.2895508, 30.204895 18.4492798, 44.8139648 15.9632568
      z
    "
  />
  <!-- This is the filling of the left part of the helmet -->
  <path
    fill="#ff9801"
    d="
      M 12,37.6132812
      c 0 -0.9985352, 0.8125 -1.8110352, 1.8110352 -1.8110352
      h 5.2077026
      c -1.114624 3.2872314, -1.7208862 6.7919312, -1.7208862 10.4130859
      c 0 3.5824585, 0.5981445 7.0958252, 1.7202759 10.4130859
      h -5.2070923
      C 12.8125 56.628418, 12 55.815918, 12 54.8173828
      V 37.6132812
      z
    "
  />
  <!-- This is the outline of the window -->
  <circle cx="50" cy="46.215332" r="23.6376953" />
  <circle cx="50" cy="46.215332" r="21.6376953" fill="#ff9801" />
  <circle cx="50" cy="46.21533205" r="13.83007815" />
  <circle cx="50" cy="46.21533205" r="11.83007815" fill="#1d3866" />
  <!-- This is the grill of the window -->
  <!--
    │  │
  ──┼──┼──
    │  │
  ──┼──┼──
    │  │

  let:
    r = 11.83007815
    cx = 50
    cy = 46.21533205

  horizontal line 1:
    x1 = cx - sqrt((r+1)^2 - ((r+1)/3)^2) = 37.9036863159755
    x2 = cx + sqrt((r+1)^2 - ((r+1)/3)^2) = 62.0963136840245
    y1 = cy - (r+1)/3 = 41.9386393333333
    y2 = y1

  horizontal line 2:
    x1 = cx - sqrt((r+1)^2 - ((r+1)/3)^2) = 37.9036863159755
    x2 = cx + sqrt((r+1)^2 - ((r+1)/3)^2) = 62.0963136840245
    y1 = cy + (r+1)/3 = 50.4920247666667
    y2 = y1

  vertical line 1:
    x1 = cx - (r+1)/3 = 45.7233072833333
    x2 = x1
    y1 = cy - sqrt((r+1)^2 - ((r+1)/3)^2) = 34.1190183659755
    y2 = cy + sqrt((r+1)^2 - ((r+1)/3)^2) = 58.3116457340245

  vertical line 2:
    x1 = cx + (r+1)/3 = 54.2766927166667
    x2 = x1
    y1 = cy - sqrt((r+1)^2 - ((r+1)/3)^2) = 34.1190183659755
    y2 = cy + sqrt((r+1)^2 - ((r+1)/3)^2) = 58.3116457340245
  -->
  <line
    x1="37.9036863159755"
    y1="41.9386393333333"
    x2="62.0963136840245"
    y2="41.9386393333333"
    stroke="black" stroke-width="2"
  />
  <line
    x1="37.9036863159755"
    y1="50.4920247666667"
    x2="62.0963136840245"
    y2="50.4920247666667"
    stroke="black" stroke-width="2"
  />
  <line
    x1="45.7233072833333"
    y1="34.1190183659755"
    x2="45.7233072833333"
    y2="58.3116457340245"
    stroke="black" stroke-width="2"
  />
  <line
    x1="54.2766927166667"
    y1="34.1190183659755"
    x2="54.2766927166667"
    y2="58.3116457340245"
    stroke="black" stroke-width="2"
  />
  <!-- These are the dots around the window -->
  <path
    d="
      M 50 30.390625
      c 0.5522461 0, 1 -0.4477539, 1 -1
      v -1.440918
      c 0 -0.5522461, -0.4477539 -1, -1 -1
      s -1 0.4477539, -1 1
      v 1.440918
      C 49 29.9428711, 49.4477539 30.390625, 50 30.390625
      z
    "
  />
  <path
    d="
      M 40.722168 32.1445312
      c 0.1850586 0.3208008, 0.5209961 0.5, 0.8666992 0.5
      c 0.1699219 0, 0.3417969 -0.0429688, 0.4990234 -0.1342773
      c 0.4785156 -0.2758789, 0.6420898 -0.8876953, 0.3657227 -1.3657227
      l -0.7207031 -1.2475586
      c -0.2763672 -0.4790039, -0.8891602 -0.6430664, -1.3657227 -0.3657227
      c -0.4785156 0.2758789, -0.6420898 0.8876953, -0.3657227 1.3657227
      L 40.722168 32.1445312
      z
    "/>
  <path
    d="
      M 33.6816406 37.9482422
      l 1.2475586 0.7207031
      c 0.1572266 0.0913086, 0.3291016 0.1342773, 0.4990234 0.1342773
      c 0.3457031 0, 0.6816406 -0.1791992, 0.8666992 -0.5
      c 0.2763672 -0.4780273, 0.112793 -1.0898438, -0.3657227 -1.3657227
      l -1.2475586 -0.7207031
      c -0.4775391 -0.2773438, -1.0898438 -0.112793, -1.3657227 0.3657227
      C 33.0395508 37.0605469, 33.203125 37.6723633, 33.6816406 37.9482422
      z
    "
  />
  <path
    d="
      M 31.734375 47.215332
      h 1.440918
      c 0.5522461 0, 1 -0.4477539, 1 -1
      s -0.4477539 -1, -1 -1
      h -1.440918
      c -0.5522461 0, -1 0.4477539, -1 1
      S 31.1821289 47.215332, 31.734375 47.215332
      z
    "
  />
  <path
    d="
      M 34.9291992 53.7617188
      l -1.2475586 0.7207031
      c -0.4785156 0.2758789, -0.6420898 0.8876953, -0.3657227 1.3657227
      c 0.1850586 0.3208008, 0.5209961 0.5, 0.8666992 0.5
      c 0.1699219 0, 0.3417969 -0.0429688, 0.4990234 -0.1342773
      l 1.2475586 -0.7207031
      c 0.4785156 -0.2758789, 0.6420898 -0.8876953, 0.3657227 -1.3657227
      C 36.0185547 53.6479492, 35.4057617 53.4838867, 34.9291992 53.7617188
      z
    "/>
  <path
    d="
      M 42.0878906 59.9204102
      c -0.4785156 -0.2773438, -1.0898438 -0.1132812, -1.3657227 0.3657227
      l -0.7207031 1.2475586
      c -0.2763672 0.4780273, -0.112793 1.0898438, 0.3657227 1.3657227
      c 0.1572266 0.0913086, 0.3291016 0.1342773, 0.4990234 0.1342773
      c 0.3457031 0, 0.6816406 -0.1791992, 0.8666992 -0.5
      l 0.7207031 -1.2475586
      C 42.7299805 60.8081055, 42.5664062 60.1962891, 42.0878906 59.9204102
      z
    "
  />
  <path
    d="
      M 50 62.0400391
      c -0.5522461 0, -1 0.4477539, -1 1
      v 1.440918
      c 0 0.5522461, 0.4477539 1, 1 1
      s 1 -0.4477539, 1 -1
      v -1.440918
      C 51 62.487793, 50.5522461 62.0400391, 50 62.0400391
      z
    "
  />
  <path
    d="
      M 59.277832 60.2861328
      c -0.2758789 -0.4790039, -0.8896484 -0.6430664, -1.3657227 -0.3657227
      c -0.4785156 0.2758789, -0.6420898 0.8876953, -0.3657227 1.3657227
      l 0.7207031 1.2475586
      c 0.1850586 0.3208008, 0.5209961 0.5, 0.8666992 0.5
      c 0.1699219 0, 0.3417969 -0.0429688, 0.4990234 -0.1342773
      c 0.4785156 -0.2758789, 0.6420898 -0.8876953, 0.3657227 -1.3657227
      L 59.277832 60.2861328
      z
    "
  />
  <path
    d="
      M 66.3183594 54.4824219
      l -1.2475586 -0.7207031
      c -0.4775391 -0.277832, -1.090332 -0.1137695, -1.3657227 0.3657227
      c -0.2763672 0.4780273, -0.112793 1.0898438, 0.3657227 1.3657227
      l 1.2475586 0.7207031
      c 0.1572266 0.0913086, 0.3291016 0.1342773, 0.4990234 0.1342773
      c 0.3457031 0, 0.6816406 -0.1791992, 0.8666992 -0.5
      C 66.9604492 55.3701172, 66.796875 54.7583008, 66.3183594 54.4824219
      z
    "
  />
  <path
    d="
      M 65.824707 46.215332
      c 0 0.5522461, 0.4477539 1, 1 1
      h 1.440918
      c 0.5522461 0, 1 -0.4477539, 1 -1
      s -0.4477539 -1, -1 -1
      h -1.440918
      C 66.2724609 45.215332, 65.824707 45.6630859, 65.824707 46.215332
      z
    "
  />
  <path
    d="
      M 64.5717773 38.8027344
      c 0.1694336 0, 0.3413086 -0.0429688, 0.4990234 -0.1337891
      l 1.2475586 -0.7202148
      c 0.4780273 -0.2763672, 0.6420898 -0.8876953, 0.3662109 -1.3662109
      c -0.2773438 -0.4785156, -0.887207 -0.6420898, -1.3662109 -0.3662109
      l -1.2475586 0.7202148
      c -0.4785156 0.2763672, -0.6420898 0.8876953, -0.3662109 1.3662109
      C 63.8901367 38.6235352, 64.2260742 38.8027344, 64.5717773 38.8027344
      z
    "
  />
  <path
    d="
      M 57.9121094 32.5102539
      c 0.1572266 0.0913086, 0.3291016 0.1342773, 0.4990234 0.1342773
      c 0.3457031 0, 0.6816406 -0.1791992, 0.8666992 -0.5
      l 0.7207031 -1.2475586
      c 0.2763672 -0.4780273, 0.112793 -1.0898438, -0.3657227 -1.3657227
      c -0.4770508 -0.2773438, -1.0898438 -0.1132812, -1.3657227 0.3657227
      l -0.7207031 1.2475586
      C 57.2700195 31.6225586, 57.4335938 32.234375, 57.9121094 32.5102539
      z
    "
  />
</svg>
