<svg height="512pt" viewBox="0 0 512 512" width="512pt" xmlns="http://www.w3.org/2000/svg"><g fill="#e57e25"><path d="m435.199219 435.199219v68.265625h-366.933594v-68.265625l34.132813-51.199219h1.027343c12.710938 14.335938 27.5625 9.726562 43.945313 19.882812 4.621094 3.023438 9.40625 5.785157 14.335937 8.277344 8.71875 4.554688 17.757813 8.460938 27.050781 11.691406 5.289063 1.875 10.75 3.496094 16.296876 4.863282 13.867187 3.628906 28.089843 5.746094 42.410156 6.316406 2.816406.082031 5.632812.167969 8.535156.167969s5.71875-.085938 8.535156-.167969c14.492188-.59375 28.882813-2.738281 42.921875-6.402344 5.546875-1.363281 10.921875-3.070312 16.210938-4.949218 9.164062-3.132813 18.066406-6.984376 26.625-11.519532 4.929687-2.492187 9.714843-5.253906 14.335937-8.277344 16.382813-10.15625 31.234375-5.546874 43.945313-19.882812h1.027343zm0 0"/><path d="m179.199219 503.464844h-8.019531c-.015626-.257813.015624-.515625.085937-.765625 2.613281.515625 5.269531.773437 7.933594.765625zm0 0"/><path d="m341.332031 503.464844h-8.53125c2.835938.023437 5.671875-.265625 8.445313-.851563.078125.277344.105468.566407.085937.851563zm0 0"/></g><path d="m171.265625 502.699219c-.070313.25-.101563.507812-.085937.765625h-153.601563c-2.4375-.019532-4.753906-1.070313-6.378906-2.890625-1.625-1.820313-2.40625-4.238281-2.152344-6.664063 5.886719-54.699218 61.097656-93.78125 93.351563-109.910156 3.824218 23.988281 10.617187 47.40625 20.226562 69.71875 2.386719 5.203125 5.035156 10.324219 7.851562 15.1875 10.152344 16.980469 23.464844 30.550781 40.789063 33.792969zm0 0" fill="#ff9801"/><path d="m502.953125 493.910156c.253906 2.425782-.527344 4.84375-2.152344 6.664063-1.625 1.820312-3.941406 2.871093-6.378906 2.890625h-153.089844c.019531-.285156-.007812-.574219-.085937-.851563 17.070312-3.414062 30.210937-16.894531 40.277344-33.707031 2.816406-4.863281 5.464843-9.984375 7.851562-15.1875 7.628906-17.386719 13.433594-35.519531 17.324219-54.101562 1.960937-9.472657 2.902343-15.617188 2.902343-15.617188 32.253907 16.128906 87.464844 55.210938 93.351563 109.910156zm0 0" fill="#f57c00"/><path d="m473.515625 493.910156c.25 2.425782-.53125 4.84375-2.15625 6.664063-1.625 1.820312-3.9375 2.871093-6.378906 2.890625h-123.648438c.019531-.285156-.007812-.574219-.085937-.851563 17.070312-3.414062 30.210937-16.894531 40.277344-33.707031 2.816406-4.863281 5.464843-9.984375 7.851562-15.1875 7.628906-17.386719 13.433594-35.519531 17.324219-54.101562 29.609375 20.394531 62.378906 52.90625 66.816406 94.292968zm0 0" fill="#ff9801"/><path d="m460.800781 247.464844c.066407 50.402344-18.539062 99.042968-52.226562 136.535156-12.78125 14.378906-27.582031 26.828125-43.945313 36.949219-4.621094 3.023437-9.40625 5.785156-14.335937 8.277343-8.558594 4.535157-17.460938 8.386719-26.625 11.519532-5.289063 1.878906-10.664063 3.585937-16.210938 4.949218-14.039062 3.664063-28.429687 5.808594-42.921875 6.402344-2.816406.082032-5.632812.167969-8.535156.167969s-5.71875-.085937-8.535156-.167969c-.710938-.015625-1.425782-.074218-2.132813-.171875-13.601562-.644531-27.101562-2.703125-40.277343-6.144531-5.546876-1.367188-11.007813-2.988281-16.296876-4.863281-9.292968-3.230469-18.332031-7.136719-27.050781-11.691407-4.929687-2.492187-9.714843-5.253906-14.335937-8.277343-16.363282-10.121094-31.164063-22.570313-43.945313-36.949219-52.550781-58.722656-66.742187-142.390625-36.503906-215.15625 30.242187-72.769531 99.550781-121.734375 178.242187-125.921875h.339844c3.414063-.167969 6.996094-.253906 10.496094-.253906 113.097656.027343 204.773438 91.703125 204.800781 204.796875zm0 0" fill="#fec108"/><path d="m439.464844 247.464844c.070312 50.402344-18.535156 99.042968-52.222656 136.535156-12.78125 14.378906-27.585938 26.828125-43.945313 36.949219-4.621094 3.023437-9.410156 5.785156-14.335937 8.277343-8.558594 4.535157-17.460938 8.386719-26.625 11.519532-5.289063 1.878906-10.667969 3.585937-16.214844 4.949218-13.34375 3.476563-27.011719 5.5625-40.789063 6.230469-13.601562-.644531-27.101562-2.703125-40.277343-6.144531-5.546876-1.367188-11.007813-2.988281-16.296876-4.863281-9.292968-3.230469-18.332031-7.136719-27.050781-11.691407-4.929687-2.492187-9.714843-5.253906-14.335937-8.277343-16.363282-10.121094-31.164063-22.570313-43.945313-36.949219-52.550781-58.722656-66.742187-142.390625-36.503906-215.15625 30.242187-72.769531 99.550781-121.734375 178.242187-125.921875h.339844c108.71875 5.847656 193.894532 95.671875 193.960938 204.542969zm0 0" fill="#ffeb3a"/><path d="m392.535156 247.464844c0 75.40625-61.128906 136.535156-136.535156 136.535156-4.988281 0-9.972656-.253906-14.933594-.769531-69.207031-7.652344-121.578125-66.136719-121.578125-135.765625 0-69.625 52.371094-128.109375 121.578125-135.761719 4.960938-.515625 9.945313-.773437 14.933594-.769531 75.40625 0 136.535156 61.128906 136.535156 136.53125zm0 0" fill="#f57c00"/><path d="m362.667969 247.464844c0-74.980469-54.445313-135.761719-121.601563-135.761719s-121.601562 60.78125-121.601562 135.761719c0 74.984375 54.445312 135.765625 121.601562 135.765625s121.601563-60.78125 121.601563-135.765625zm0 0" fill="#ff9801"/><path d="m360.449219 247.464844c.007812 8.636718-1.082031 17.242187-3.242188 25.601562-1.398437 5.867188-3.371093 11.585938-5.890625 17.066406-6.199218 13.980469-15.441406 26.398438-27.050781 36.351563-4.8125 4.210937-10.011719 7.953125-15.53125 11.179687-16 9.34375-34.203125 14.261719-52.734375 14.25-3.222656.003907-6.441406-.167968-9.644531-.511718-15.203125-1.339844-29.917969-6.03125-43.089844-13.738282-5.519531-3.226562-10.71875-6.96875-15.53125-11.179687-11.609375-9.953125-20.851563-22.371094-27.050781-36.351563-2.519532-5.480468-4.492188-11.199218-5.890625-17.066406-4.320313-16.792968-4.320313-34.40625 0-51.199218 1.398437-5.871094 3.371093-11.585938 5.890625-17.066407 6.199218-13.980469 15.441406-26.398437 27.050781-36.351562 4.8125-4.210938 10.011719-7.953125 15.53125-11.179688 13.171875-7.707031 27.886719-12.402343 43.089844-13.738281 3.203125-.34375 6.421875-.515625 9.644531-.511719 18.53125-.011719 36.734375 4.90625 52.734375 14.25 5.519531 3.226563 10.71875 6.96875 15.53125 11.179688 11.609375 9.953125 20.851563 22.371093 27.050781 36.351562 2.519532 5.480469 4.492188 11.195313 5.890625 17.066407 2.160157 8.359374 3.25 16.964843 3.242188 25.597656zm0 0" fill="#37474f"/><path d="m341.164062 247.464844c.007813 8.636718-1.082031 17.242187-3.242187 25.601562-1.398437 5.867188-3.371094 11.585938-5.890625 17.066406-6.199219 13.980469-15.441406 26.398438-27.050781 36.351563-4.8125 4.210937-10.011719 7.953125-15.53125 11.179687-13.171875 7.707032-27.886719 12.398438-43.09375 13.738282-15.203125-1.339844-29.917969-6.03125-43.089844-13.738282-5.519531-3.226562-10.71875-6.96875-15.53125-11.179687-11.609375-9.953125-20.851563-22.371094-27.050781-36.351563-2.519532-5.480468-4.492188-11.199218-5.890625-17.066406-4.320313-16.792968-4.320313-34.40625 0-51.199218 1.398437-5.871094 3.371093-11.585938 5.890625-17.066407 6.199218-13.980469 15.441406-26.398437 27.050781-36.351562 4.8125-4.210938 10.011719-7.953125 15.53125-11.179688 13.171875-7.707031 27.886719-12.402343 43.089844-13.738281 15.207031 1.335938 29.921875 6.03125 43.09375 13.738281 5.519531 3.226563 10.71875 6.96875 15.53125 11.179688 11.609375 9.953125 20.851562 22.371093 27.050781 36.351562 2.519531 5.480469 4.492188 11.195313 5.890625 17.066407 2.160156 8.359374 3.25 16.964843 3.242187 25.597656zm0 0" fill="#1D3866"/><path d="m256 460.800781c-117.820312 0-213.332031-95.511719-213.332031-213.335937 0-117.820313 95.511719-213.332032 213.332031-213.332032s213.332031 95.511719 213.332031 213.332032c-.128906 117.769531-95.566406 213.203125-213.332031 213.335937zm0-409.601562c-108.394531 0-196.265625 87.871093-196.265625 196.265625 0 108.398437 87.871094 196.269531 196.265625 196.269531s196.265625-87.871094 196.265625-196.269531c-.121094-108.34375-87.921875-196.140625-196.265625-196.265625zm0 0"/><path d="m256 392.535156c-80.117188 0-145.066406-64.949218-145.066406-145.070312 0-80.117188 64.949218-145.066406 145.066406-145.066406s145.066406 64.949218 145.066406 145.066406c-.089844 80.082031-64.984375 144.980468-145.066406 145.070312zm0-273.070312c-70.691406 0-128 57.308594-128 128 0 70.695312 57.308594 128 128 128s128-57.304688 128-128c-.078125-70.65625-57.339844-127.917969-128-128zm0 0"/><path d="m256 360.40625c-62.375 0-112.9375-50.566406-112.9375-112.941406 0-62.371094 50.5625-112.9375 112.9375-112.9375s112.9375 50.566406 112.9375 112.9375c-.070312 62.347656-50.59375 112.871094-112.9375 112.941406zm0-208.8125c-52.949219 0-95.871094 42.925781-95.871094 95.871094 0 52.949218 42.921875 95.875 95.871094 95.875s95.871094-42.925782 95.871094-95.875c-.058594-52.921875-42.949219-95.808594-95.871094-95.871094zm0 0"/><path d="m324.265625 59.734375c-4.710937 0-8.53125-3.820313-8.53125-8.535156v-25.597657c0-4.714843-3.820313-8.535156-8.535156-8.535156h-102.398438c-4.714843 0-8.535156 3.820313-8.535156 8.535156v25.597657c0 4.714843-3.820313 8.535156-8.53125 8.535156-4.714844 0-8.535156-3.820313-8.535156-8.535156v-25.597657c0-14.140624 11.460937-25.601562 25.601562-25.601562h102.398438c14.140625 0 25.601562 11.460938 25.601562 25.601562v25.597657c0 4.714843-3.820312 8.535156-8.535156 8.535156zm0 0"/><path d="m486.398438 315.734375h-34.132813c-4.710937 0-8.53125-3.820313-8.53125-8.535156 0-4.710938 3.820313-8.53125 8.53125-8.53125h34.132813c4.714843 0 8.535156-3.820313 8.535156-8.535157v-102.398437c0-4.714844-3.820313-8.535156-8.535156-8.535156h-34.132813c-4.710937 0-8.53125-3.820313-8.53125-8.53125 0-4.714844 3.820313-8.535157 8.53125-8.535157h34.132813c14.140624 0 25.601562 11.460938 25.601562 25.601563v102.398437c0 14.140626-11.460938 25.601563-25.601562 25.601563zm0 0"/><path d="m59.734375 315.734375h-34.132813c-14.140624 0-25.601562-11.460937-25.601562-25.601563v-102.398437c0-14.140625 11.460938-25.601563 25.601562-25.601563h34.132813c4.710937 0 8.53125 3.820313 8.53125 8.535157 0 4.710937-3.820313 8.53125-8.53125 8.53125h-34.132813c-4.714843 0-8.535156 3.820312-8.535156 8.535156v102.398437c0 4.714844 3.820313 8.535157 8.535156 8.535157h34.132813c4.710937 0 8.53125 3.820312 8.53125 8.53125 0 4.714843-3.820313 8.535156-8.53125 8.535156zm0 0"/><path d="m196.265625 341.332031c-4.710937 0-8.53125-3.820312-8.53125-8.53125v-170.667969c0-4.710937 3.820313-8.53125 8.53125-8.53125 4.714844 0 8.535156 3.820313 8.535156 8.53125v170.667969c0 4.710938-3.820312 8.53125-8.535156 8.53125zm0 0"/><path d="m315.734375 341.332031c-4.714844 0-8.535156-3.820312-8.535156-8.53125v-170.667969c0-4.710937 3.820312-8.53125 8.535156-8.53125 4.710937 0 8.53125 3.820313 8.53125 8.53125v170.667969c0 4.710938-3.820313 8.53125-8.53125 8.53125zm0 0"/><path d="m153.601562 204.800781h204.796876v17.066407h-204.796876zm0 0"/><path d="m153.601562 273.066406h204.796876v17.066406h-204.796876zm0 0"/><path d="m494.464844 512h-476.929688c-4.859375-.011719-9.488281-2.089844-12.726562-5.714844-3.238282-3.625-4.7812502-8.457031-4.246094-13.289062 7.3125-68.035156 82.9375-109.089844 98.023438-116.632813 2.453124-1.226562 5.347656-1.199219 7.773437.074219 2.429687 1.273438 4.101563 3.636719 4.488281 6.351562 4.394532 30.640626 24.746094 109.300782 66.109375 112.066407h157.4375c41.816407-1.96875 62.335938-81.296875 66.757813-112.101563.386718-2.714844 2.058594-5.078125 4.488281-6.351562 2.425781-1.273438 5.320313-1.300782 7.773437-.074219 15.085938 7.542969 90.710938 48.640625 98.023438 116.625.546875 4.839844-.992188 9.679687-4.234375 13.316406-3.238281 3.632813-7.871094 5.71875-12.738281 5.730469zm-122.410156-17.066406h122.425781c-5.359375-49.929688-54.835938-84.148438-78.507813-97.808594-4.582031 22.714844-17.082031 71.714844-43.917968 97.808594zm-275.996094-97.808594c-23.6875 13.652344-73.164063 47.863281-78.503906 97.699219h122.375c-26.835938-26.046875-39.320313-74.984375-43.871094-97.699219zm0 0"/><path d="m121.171875 455.683594 25.59375-34.136719 13.648437 10.234375-25.59375 34.136719zm0 0"/><path d="m351.574219 431.785156 13.644531-10.234375 25.601562 34.132813-13.648437 10.234375zm0 0"/><path d="m332.800781 512c-3.8125-.003906-7.15625-2.53125-8.203125-6.195312l-17.066406-59.734376c-.96875-2.96875-.234375-6.234374 1.910156-8.503906 2.148438-2.273437 5.363282-3.1875 8.382813-2.390625 3.023437.796875 5.367187 3.183594 6.109375 6.21875l17.066406 59.734375c1.292969 4.527344-1.324219 9.25-5.851562 10.546875-.765626.210938-1.554688.320313-2.347657.324219zm0 0"/><path d="m179.738281 512c-.792969-.003906-1.582031-.113281-2.347656-.324219-4.53125-1.292969-7.15625-6.015625-5.863281-10.546875l17.066406-59.734375c.785156-2.988281 3.125-5.320312 6.121094-6.09375 2.992187-.777343 6.167968.128907 8.304687 2.367188 2.136719 2.234375 2.894531 5.449219 1.984375 8.402343l-17.066406 59.734376c-1.042969 3.664062-4.390625 6.191406-8.199219 6.195312zm0 0"/><path d="m256 512c-4.710938 0-8.535156-3.820312-8.535156-8.535156v-51.199219c0-4.710937 3.824218-8.53125 8.535156-8.53125s8.535156 3.820313 8.535156 8.53125v51.199219c0 4.714844-3.824218 8.535156-8.535156 8.535156zm0 0"/><path d="m264.535156 76.800781c0 4.710938-3.824218 8.53125-8.535156 8.53125s-8.535156-3.820312-8.535156-8.53125c0-4.714843 3.824218-8.535156 8.535156-8.535156s8.535156 3.820313 8.535156 8.535156zm0 0"/><path d="m384 366.933594c0 4.710937-3.820312 8.53125-8.535156 8.53125-4.710938 0-8.53125-3.820313-8.53125-8.53125 0-4.714844 3.820312-8.535156 8.53125-8.535156 4.714844 0 8.535156 3.820312 8.535156 8.535156zm0 0"/><path d="m435.199219 247.464844c0 4.714844-3.820313 8.535156-8.53125 8.535156-4.714844 0-8.535157-3.820312-8.535157-8.535156 0-4.710938 3.820313-8.53125 8.535157-8.53125 4.710937 0 8.53125 3.820312 8.53125 8.53125zm0 0"/><path d="m384 128c0 4.710938-3.820312 8.535156-8.535156 8.535156-4.710938 0-8.53125-3.824218-8.53125-8.535156s3.820312-8.535156 8.53125-8.535156c4.714844 0 8.535156 3.824218 8.535156 8.535156zm0 0"/><path d="m145.066406 128c0 4.710938-3.820312 8.535156-8.53125 8.535156-4.714844 0-8.535156-3.824218-8.535156-8.535156s3.820312-8.535156 8.535156-8.535156c4.710938 0 8.53125 3.824218 8.53125 8.535156zm0 0"/><path d="m93.867188 247.464844c0 4.714844-3.820313 8.535156-8.535157 8.535156-4.710937 0-8.53125-3.820312-8.53125-8.535156 0-4.710938 3.820313-8.53125 8.53125-8.53125 4.714844 0 8.535157 3.820312 8.535157 8.53125zm0 0"/><path d="m145.066406 366.933594c0 4.710937-3.820312 8.53125-8.53125 8.53125-4.714844 0-8.535156-3.820313-8.535156-8.53125 0-4.714844 3.820312-8.535156 8.535156-8.535156 4.710938 0 8.53125 3.820312 8.53125 8.535156zm0 0"/><path d="m264.535156 418.132812c0 4.714844-3.824218 8.535157-8.535156 8.535157s-8.535156-3.820313-8.535156-8.535157c0-4.710937 3.824218-8.53125 8.535156-8.53125s8.535156 3.820313 8.535156 8.53125zm0 0"/></svg>